<svg width="80" height="64" viewBox="0 0 80 64" fill="none" xmlns="http://www.w3.org/2000/svg">
<path d="M27.7269 12.4354C25.3786 17.8029 33.5977 20.5426 37.791 22.0802C17.5563 20.7747 13.8887 32.5636 12.5957 39.5752C8.20656 25.0562 18.0588 13.4755 23.5335 9.5V14.9514C25.77 11.4569 30.0752 7.06784 27.7269 12.4354Z" fill="#D19563"/>
<path d="M21.8562 25.4349C15.1468 29.796 15.7059 37.3161 16.8241 40.5311C27.5592 30.1315 39.1888 36.1979 43.6618 40.5311C45.6746 33.4862 41.9844 29.4885 39.8877 28.3702C28.8172 32.7314 23.254 28.2305 21.8562 25.4349Z" fill="#D19563"/>
<path d="M57.5 25.4348C56.242 32.5636 48.1348 31.5851 44.0811 30.0475C51.6293 29.6282 52.0486 27.5315 52.0486 26.2735C52.0486 25.0155 52.0486 24.5962 49.5325 24.1768C47.0507 23.7631 46.1778 18.7254 47.4358 20.4027C48.4423 21.7446 49.8121 22.0801 50.3712 22.0801C56.4097 21.4092 57.0806 24.1768 57.5 25.4348Z" fill="#D19563"/>
<path d="M15.5 8.5H2V52H70V16H47L34 8.5" stroke="#313C52" stroke-width="3"/>
<path d="M27.5 54.5L19.5 62L20.5 63.5H51.5L52.5 62L44.5 54.5H27.5Z" fill="#313C52"/>
<rect x="3.5" y="40.5" width="65" height="10" fill="#7690C9"/>
<circle cx="36.5" cy="45.5" r="3" fill="white"/>
<path d="M32 1L48 11H77.5L63 1H32Z" fill="#313C52" stroke="#313C52"/>
<rect x="73" y="33" width="6" height="3" fill="#F8AA42"/>
<rect x="74" y="32" width="4" height="5" fill="#F8AA42"/>
<path d="M76 30V14" stroke="#F8AA42" stroke-width="3"/>
<path d="M76 31.5V13" stroke="#F8AA42"/>
</svg>
