<?xml version="1.0" standalone="no"?>
<!DOCTYPE svg PUBLIC "-//W3C//DTD SVG 20010904//EN"
 "http://www.w3.org/TR/2001/REC-SVG-20010904/DTD/svg10.dtd">
<svg version="1.0" xmlns="http://www.w3.org/2000/svg"
 width="806.000000pt" height="785.000000pt" viewBox="0 0 806.000000 785.000000"
 preserveAspectRatio="xMidYMid meet">

<g transform="translate(0.000000,785.000000) scale(0.100000,-0.100000)"
fill="#000000" stroke="none">
<path d="M255 7803 c-115 -274 -143 -656 -74 -998 38 -188 141 -456 218 -568
17 -25 31 -50 31 -55 0 -6 -92 -137 -206 -292 -113 -154 -207 -287 -209 -293
-3 -8 57 -36 158 -76 198 -77 446 -197 588 -284 209 -127 336 -235 500 -424
l88 -101 -11 -64 c-16 -86 -16 -481 0 -593 55 -395 174 -720 382 -1051 63
-100 106 -154 239 -299 111 -121 200 -266 255 -411 8 -22 25 -66 39 -99 32
-76 67 -197 102 -350 107 -478 108 -1026 2 -1340 l-24 -70 -154 -47 c-85 -25
-173 -51 -197 -58 -24 -6 -62 -28 -84 -48 -58 -52 -78 -101 -78 -194 l0 -78
428 0 429 0 39 28 c103 75 155 173 179 337 29 202 178 958 191 974 2 3 113
-103 247 -235 343 -339 582 -539 806 -672 l95 -57 -419 -5 -420 -5 -50 -27
c-83 -44 -132 -85 -161 -134 -31 -53 -37 -119 -15 -171 l13 -33 1527 0 c1309
0 1536 2 1596 15 295 63 666 279 901 527 91 96 149 179 217 309 112 214 169
508 186 949 10 246 19 285 115 486 86 180 156 273 265 355 l64 49 -149 0
c-356 0 -762 -79 -989 -192 -242 -121 -451 -389 -600 -772 -49 -124 -54 -153
-75 -426 -21 -261 -72 -517 -130 -647 -30 -66 -118 -208 -125 -201 -3 2 4 63
15 136 33 225 42 370 38 573 l-5 194 -67 260 c-100 387 -151 531 -283 797
-113 225 -130 255 -241 417 -207 304 -474 588 -892 952 -297 258 -723 588
-1004 778 -172 116 -248 177 -421 338 -145 134 -318 315 -323 337 -4 18 196
148 333 216 101 51 171 78 298 112 l47 13 -199 298 -198 298 57 127 c106 231
183 489 216 717 23 159 23 417 1 542 -20 109 -68 265 -84 270 -18 6 -239 -148
-373 -260 -219 -183 -501 -491 -662 -722 -45 -65 -54 -73 -77 -69 -232 40
-571 43 -816 8 -37 -5 -41 -3 -59 27 -37 64 -195 265 -303 389 -135 154 -390
405 -498 490 -84 67 -192 140 -206 140 -5 0 -16 -17 -24 -37z"/>
</g>
</svg>
