<?xml version="1.0" standalone="no"?>
<!DOCTYPE svg PUBLIC "-//W3C//DTD SVG 20010904//EN"
 "http://www.w3.org/TR/2001/REC-SVG-20010904/DTD/svg10.dtd">
<svg version="1.0" xmlns="http://www.w3.org/2000/svg"
 width="458.000000pt" height="488.000000pt" viewBox="0 0 458.000000 488.000000"
 preserveAspectRatio="xMidYMid meet">

<g transform="translate(0.000000,488.000000) scale(0.100000,-0.100000)"
fill="#000000" stroke="none">
<path d="M3522 4405 c-72 -33 -151 -96 -253 -201 -96 -100 -236 -266 -250
-298 -10 -20 -17 -21 -179 -22 -93 -1 -180 -4 -192 -7 -20 -5 -28 2 -58 51
-78 132 -215 292 -328 383 -99 80 -166 111 -229 107 -41 -3 -50 -7 -70 -36
-39 -58 -57 -170 -57 -342 0 -218 43 -436 115 -586 l29 -62 -31 -73 c-18 -41
-45 -111 -60 -157 -27 -77 -28 -85 -14 -112 8 -16 42 -50 75 -75 l60 -47 -27
-51 c-51 -96 -109 -141 -297 -232 -199 -97 -292 -156 -397 -251 -135 -123
-211 -217 -309 -384 -189 -318 -295 -676 -302 -1010 -1 -94 -5 -111 -30 -160
-82 -159 -50 -359 76 -485 135 -134 347 -191 711 -189 165 1 234 6 395 30 183
27 210 28 450 25 556 -8 583 -8 613 12 23 15 55 18 215 20 202 3 244 12 276
58 23 34 20 106 -6 159 -30 59 -86 96 -176 117 l-72 17 -15 50 c-42 142 -75
460 -75 730 0 109 5 208 11 231 6 22 42 88 81 148 92 143 152 270 185 392 27
98 28 105 28 400 l0 299 90 63 c119 82 155 122 155 169 0 21 -22 92 -52 165
l-51 129 20 23 c92 100 168 497 143 754 -13 136 -33 208 -70 245 -35 34 -60
35 -128 3z m88 -121 c12 -23 15 -72 14 -244 0 -197 -2 -225 -27 -328 -32 -138
-65 -212 -106 -243 -17 -12 -31 -31 -31 -40 0 -10 25 -80 55 -157 30 -77 55
-151 55 -164 0 -34 -116 -120 -335 -246 -38 -22 -110 -77 -160 -123 -119 -109
-152 -123 -280 -124 -121 0 -138 7 -232 106 -57 60 -85 79 -168 120 -160 77
-365 224 -365 262 0 11 27 88 60 171 33 84 60 158 60 166 0 7 -12 28 -26 47
-97 127 -155 445 -126 684 14 108 27 139 60 139 90 0 313 -245 478 -526 10
-18 15 -18 60 -5 78 22 283 26 392 7 52 -9 97 -14 101 -11 5 2 11 18 14 33 14
71 216 327 334 424 60 50 131 90 148 85 6 -2 17 -17 25 -33z m-1319 -1473
c137 -69 143 -73 212 -137 82 -77 118 -102 193 -130 57 -21 82 -25 144 -22 95
4 136 24 260 125 52 42 122 94 155 115 l60 39 8 -78 c12 -120 2 -426 -18 -513
-46 -204 -145 -376 -329 -568 -86 -90 -241 -219 -293 -246 l-33 -17 0 160 c0
132 -3 162 -16 175 -8 9 -19 16 -23 16 -76 0 -79 -390 -6 -790 24 -129 86
-403 96 -422 5 -9 27 -19 51 -23 104 -17 171 -65 184 -133 9 -43 -13 -51 -151
-54 l-118 -3 -19 34 c-27 48 -130 181 -168 216 -46 43 -52 59 -109 275 -76
284 -114 403 -196 610 -75 189 -105 314 -92 394 5 38 0 56 -18 56 -20 0 -30
-24 -45 -103 -22 -118 -2 -219 80 -417 26 -63 62 -167 79 -230 17 -63 51 -180
75 -260 25 -79 43 -146 41 -148 -2 -2 -23 9 -47 26 -65 44 -153 86 -248 117
-47 15 -86 29 -88 30 -1 1 7 27 19 56 50 124 60 225 34 337 -66 279 -329 407
-632 307 -87 -29 -128 -60 -117 -89 8 -20 2 -20 159 14 179 39 311 14 404 -79
116 -116 140 -303 61 -470 l-29 -61 -119 0 c-149 0 -257 -18 -442 -75 -191
-58 -236 -68 -290 -60 -100 15 -114 44 -113 220 1 159 14 250 58 422 68 260
178 490 337 705 127 171 299 308 513 408 174 82 244 136 348 268 27 34 53 62
59 62 6 0 64 -27 129 -59z m720 -1393 c-6 -267 39 -686 95 -869 3 -11 21 -18
57 -22 85 -11 143 -35 182 -78 19 -21 35 -45 35 -53 0 -30 -30 -46 -84 -46
-29 0 -101 -3 -159 -7 l-107 -6 0 46 c0 38 -6 53 -31 82 -17 19 -44 43 -59 52
-22 13 -29 26 -34 62 -3 25 -42 202 -87 393 l-82 348 68 62 c50 46 206 178
210 178 0 0 -2 -64 -4 -142z m-242 -686 c33 -140 37 -172 22 -157 -5 6 -21 66
-35 135 -15 69 -30 136 -33 150 -4 17 -2 22 5 15 5 -5 24 -70 41 -143z m-898
83 c196 -34 313 -99 485 -270 98 -97 184 -199 184 -217 0 -2 -107 -3 -238 -4
-213 -1 -254 -4 -402 -29 -147 -25 -189 -29 -385 -29 -238 0 -338 12 -477 59
-127 43 -217 123 -253 226 -19 54 -19 150 0 196 15 37 16 37 31 15 29 -41 92
-66 169 -66 72 1 88 5 305 68 217 65 410 81 581 51z"/>
<path d="M2270 3859 c0 -2 7 -36 15 -74 13 -65 13 -73 -4 -105 -12 -25 -26
-36 -44 -38 -15 -2 -27 -9 -27 -16 0 -19 33 -46 56 -46 24 0 120 77 129 103 8
21 -38 97 -89 146 -20 19 -36 33 -36 30z"/>
<path d="M3294 3815 c-92 -95 -94 -131 -13 -195 57 -45 91 -50 113 -18 22 31
20 38 -12 38 -21 0 -32 7 -40 25 -15 33 -15 102 -1 143 20 57 4 59 -47 7z"/>
<path d="M2443 3333 c-32 -6 -53 -41 -53 -86 0 -68 66 -107 161 -94 47 6 45
10 53 -142 5 -103 17 -141 36 -111 13 21 23 152 18 235 -10 146 -92 222 -215
198z"/>
<path d="M3042 3310 c-22 -14 -43 -40 -60 -78 -24 -51 -27 -68 -27 -167 1
-104 16 -185 35 -185 14 0 20 30 20 104 0 40 3 93 6 118 l6 45 63 1 c68 1 118
20 135 51 12 23 13 81 2 97 -25 38 -127 46 -180 14z"/>
<path d="M2720 2840 c-31 -31 -26 -74 17 -120 50 -57 67 -64 101 -46 42 22 92
83 92 112 0 14 -11 36 -25 49 -21 22 -33 25 -95 25 -57 0 -74 -4 -90 -20z"/>
</g>
</svg>
